<!-- icon666.com - MILLIONS vector ICONS FREE --><svg version="1.1" id="Layer_1" xmlns="http://www.w3.org/2000/svg" xmlns:xlink="http://www.w3.org/1999/xlink" x="10px" y="10px" viewBox="0 0 512 512" style="enable-background:new 0 0 512 512;" xml:space="preserve"><g><g><path d="M494.932,0H17.067C7.641,0,0,7.641,0,17.067v477.865C0,504.359,7.641,512,17.067,512h477.865 c9.426,0,17.067-7.641,17.067-17.067V17.067C512,7.641,504.359,0,494.932,0z M477.865,477.865H34.135V34.135h443.73V477.865z" fill="#000000" style="fill: rgb(51, 51, 51);"></path></g></g><g><g><path d="M415.819,138.177c-0.336-8.839-4.373-17.217-11.076-22.984c-41.24-35.478-94.064-55.016-148.744-55.016 c-54.679,0-107.505,19.538-148.745,55.016c-6.71,5.773-10.75,14.151-11.086,22.985c-0.337,8.847,3.061,17.513,9.322,23.775 l67.095,67.094c11.391,11.392,29.114,12.315,41.603,3.016c12.14-9.038,26.611-13.787,41.811-13.787 c15.237,0,29.695,4.768,41.811,13.787c12.483,9.293,30.185,8.402,41.603-3.016l67.094-67.094 C412.762,155.7,416.156,147.033,415.819,138.177z M316.64,203.549c-17.727-12.702-38.651-19.406-60.64-19.406 c-4.188,0-8.335,0.247-12.431,0.727l-43.75-55.182c-5.855-7.386-16.591-8.626-23.977-2.771 c-7.387,5.856-8.627,16.591-2.771,23.978l35.403,44.656c-4.531,2.327-8.915,4.987-13.115,7.997l-64.024-64.023 c34.777-29.175,78.95-45.213,124.664-45.213s89.887,16.039,124.665,45.213L316.64,203.549z" fill="#000000" style="fill: rgb(51, 51, 51);"></path></g></g></svg>